<svg width="16" height="16" viewBox="0 0 16 16" xmlns="http://www.w3.org/2000/svg" fill="currentColor"><path d="M11.429 11.606c0-.923 1.285-2.419 1.285-2.419s1.286 1.505 1.286 2.419c0 .766-.574 1.385-1.286 1.385-.711 0-1.285-.619-1.285-1.385z"/><path fill-rule="evenodd" clip-rule="evenodd" d="M5.353 1l5.828 6.268c.334.36.334.951 0 1.311l-3.856 4.154c-.171.175-.386.268-.608.268-.223 0-.437-.092-.608-.277l-3.856-4.154c-.334-.36-.334-.942 0-1.302l3.557-3.822-1.363-1.468.908-.978zm1.363 3.425l-2.819 3.037h5.639l-2.819-3.037z"/><path d="M16 14h-16v2h16v-2z"/></svg>