<svg width="16" height="16" viewBox="0 0 16 16" xmlns="http://www.w3.org/2000/svg" fill="currentColor"><path fill-rule="evenodd" clip-rule="evenodd" d="M7.36 1c-.215 0-.406.138-.474.342l-.447 1.342-.014.045c-.363.108-.71.253-1.038.43l-.042-.022-1.265-.633c-.192-.096-.425-.059-.577.094l-.905.905c-.152.152-.19.385-.094.577l.633 1.265.022.042c-.177.327-.322.675-.43 1.038l-.045.014-1.342.447c-.204.068-.342.259-.342.474v1.279c0 .215.138.406.342.474l1.342.447.045.014c.108.363.253.711.43 1.038l-.022.042-.633 1.265c-.096.193-.059.425.094.577l.905.904c.152.152.385.19.577.094l1.265-.633.042-.022c.327.177.675.322 1.038.43l.014.045.447 1.342c.068.204.259.342.474.342h1.279c.215 0 .406-.138.474-.342l.447-1.342.014-.045c.363-.108.711-.253 1.038-.43l.042.022 1.265.633c.193.096.425.059.577-.094l.904-.904c.152-.152.19-.385.094-.577l-.633-1.265-.022-.042c.177-.327.322-.675.43-1.038l.045-.014 1.342-.447c.204-.068.342-.259.342-.474v-1.279c0-.215-.138-.406-.342-.474l-1.342-.447-.045-.014c-.108-.363-.253-.71-.43-1.038l.022-.042.633-1.265c.096-.193.059-.425-.094-.577l-.904-.905c-.152-.152-.385-.19-.577-.094l-1.265.633-.042.022c-.327-.177-.675-.322-1.038-.43l-.014-.045-.447-1.342c-.068-.204-.259-.342-.474-.342h-1.279zm.64 9c1.105 0 2-.895 2-2s-.895-2-2-2-2 .895-2 2 .895 2 2 2z"/></svg>